<svg width="20" height="20" viewBox="0 0 20 20" fill="none" xmlns="http://www.w3.org/2000/svg">
  <path d="M17.5 6.25H16.25V5C16.25 3.62 15.13 2.5 13.75 2.5H3.75C2.37 2.5 1.25 3.62 1.25 5V15C1.25 16.38 2.37 17.5 3.75 17.5H16.25C17.63 17.5 18.75 16.38 18.75 15V7.5C18.75 6.81 18.19 6.25 17.5 6.25ZM3.75 3.75H13.75C14.44 3.75 15 4.31 15 5V6.25H3.75C3.06 6.25 2.5 5.69 2.5 5C2.5 4.31 3.06 3.75 3.75 3.75ZM17.5 15C17.5 15.69 16.94 16.25 16.25 16.25H3.75C3.06 16.25 2.5 15.69 2.5 15V7.19C2.81 7.38 3.19 7.5 3.75 7.5H17.5V15ZM15 11.25C15 11.94 14.44 12.5 13.75 12.5C13.06 12.5 12.5 11.94 12.5 11.25C12.5 10.56 13.06 10 13.75 10C14.44 10 15 10.56 15 11.25Z" fill="currentColor"/>
</svg>